<?xml version="1.0" encoding="UTF-8"?>
<svg version="1.1" xmlns="http://www.w3.org/2000/svg" width="202" height="202">
<path d="M0 0 C0.8402623 -0.00175232 1.6805246 -0.00350464 2.54624939 -0.00531006 C5.32382279 -0.00970673 8.10133219 -0.00679186 10.87890625 -0.00341797 C12.83870455 -0.00409313 14.79850277 -0.00506493 16.75830078 -0.00631714 C20.88070467 -0.00779241 25.00308691 -0.00565054 29.12548828 -0.00097656 C34.31588003 0.00463153 39.50621966 0.00137965 44.6966095 -0.00438309 C63.11192965 -0.02212136 81.53105928 -0.02220923 99.94140625 0.44970703 C101.1329834 0.47169159 102.32456055 0.49367615 103.55224609 0.5163269 C116.21862417 0.92276675 116.21862417 0.92276675 121 5.68017578 C124.64640735 12.98919675 124.81348285 22.33818359 122.44140625 30.12939453 C123.5673287 29.15128871 124.69205858 28.17181018 125.81640625 27.19189453 C126.91082031 26.24056641 126.91082031 26.24056641 128.02734375 25.27001953 C129.67959103 23.80492 131.30901587 22.31378675 132.91796875 20.80126953 C139.94883339 14.22751993 146.44284274 8.96275181 156.44140625 9.12939453 C159.47060968 11.84791043 160.71804153 14.19893398 161.44140625 18.12939453 C161.54871669 20.37858573 161.60009726 22.630649 161.6184082 24.88232422 C161.6249794 25.55280792 161.6315506 26.22329163 161.63832092 26.91409302 C161.65798271 29.12648648 161.66970115 31.33881225 161.6796875 33.55126953 C161.68376303 34.3098954 161.68783855 35.06852127 161.69203758 35.8501358 C161.712869 39.86639633 161.72718277 43.88262299 161.73657227 47.89892578 C161.74762467 52.03252479 161.78201894 56.16558372 161.82174397 60.29899216 C161.8479752 63.49046787 161.85626987 66.68181618 161.85985374 69.8733902 C161.8647037 71.3963307 161.87627209 72.91926612 161.89489174 74.44210052 C162.06609576 89.37341996 162.06609576 89.37341996 157.44140625 96.12939453 C154.20583814 97.74717859 150.94860994 97.55334223 147.44140625 97.12939453 C139.23453669 93.87761603 132.61885144 86.13916164 127.234375 79.34423828 C125.6317125 77.05212976 125.6317125 77.05212976 123.44140625 76.12939453 C123.46460938 76.89123047 123.4878125 77.65306641 123.51171875 78.43798828 C123.64610578 86.12684632 123.61390906 93.13198936 119.87890625 100.00439453 C113.32177345 105.72086928 104.79373845 105.56418221 96.51513672 105.51757812 C94.77438873 105.52546356 94.77438873 105.52546356 92.99847412 105.5335083 C89.18504139 105.54664883 85.37203029 105.53799208 81.55859375 105.52783203 C78.8977914 105.52985419 76.2370016 105.53276263 73.57620239 105.53652954 C68.00990271 105.54197133 62.44372286 105.53483552 56.87744141 105.52050781 C50.4556345 105.50416816 44.0341132 105.50948552 37.61231315 105.52598703 C32.08083312 105.53962787 26.54943874 105.5415094 21.01794732 105.53367102 C17.72188942 105.52901077 14.42599413 105.52951446 11.12994003 105.53828049 C7.45605971 105.54590911 3.78272636 105.53427071 0.10888672 105.51757812 C-1.51528671 105.52668716 -1.51528671 105.52668716 -3.17227173 105.53598022 C-10.19164781 105.47697262 -15.20699563 104.75632279 -20.87109375 100.31689453 C-27.86567204 91.2498486 -25.71593796 75.56976849 -25.7265625 64.71533203 C-25.7315551 62.88997421 -25.7315551 62.88997421 -25.73664856 61.02774048 C-25.74166896 58.47829563 -25.74405842 55.92884432 -25.74389648 53.37939453 C-25.74609234 49.50688837 -25.76432625 45.63466338 -25.78320312 41.76220703 C-25.78613634 39.26741632 -25.78812162 36.77262429 -25.7890625 34.27783203 C-25.79624802 33.1368808 -25.80343353 31.99592957 -25.81083679 30.82040405 C-25.75599306 11.29944527 -25.75599306 11.29944527 -21.18359375 5.50439453 C-14.93510489 -0.14900015 -8.16125786 -0.02111988 0 0 Z " fill="#6F6AE1" transform="translate(37.55859375,78.87060546875)"/>
<path d="M0 0 C7.53662653 7.06558737 11.88291935 13.78453284 12.53125 24.22265625 C12.18119969 33.96572316 8.36973609 41.21560689 1.36328125 47.7734375 C-8.37143677 55.91118607 -18.2460605 56.92351834 -30.5625 55.83203125 C-40.64393081 53.60643286 -47.35374262 46.87845879 -53.3359375 38.82421875 C-57.7378057 31.67468759 -57.45105386 23.61728957 -56.203125 15.4921875 C-53.48019049 6.49546468 -45.08596094 -0.7151911 -37.08203125 -5.04296875 C-24.88367471 -10.48967678 -10.19797637 -8.62786111 0 0 Z " fill="#7171E2" transform="translate(140.5625,19.16796875)"/>
<path d="M0 0 C8.23587404 4.72056195 13.49433506 11.85770899 16 21 C17.20353812 31.20692907 16.14154954 39.59177547 10 48 C7.25687187 50.88420329 4.42731141 52.98953465 1 55 C0.27296875 55.43183594 -0.4540625 55.86367187 -1.203125 56.30859375 C-9.59896294 60.43511954 -20.02382863 60.2998365 -29.03515625 58.33984375 C-38.0531015 55.12014459 -45.55475815 48.07161273 -49.6875 39.5 C-53.0881286 30.43165706 -52.85557543 21.88159339 -49 13 C-38.99845338 -4.25266791 -17.3748695 -8.96677349 0 0 Z " fill="#706FE2" transform="translate(64,16)"/>
<path d="M0 0 C0.8402623 -0.00175232 1.6805246 -0.00350464 2.54624939 -0.00531006 C5.32382279 -0.00970673 8.10133219 -0.00679186 10.87890625 -0.00341797 C12.83870455 -0.00409313 14.79850277 -0.00506493 16.75830078 -0.00631714 C20.88070467 -0.00779241 25.00308691 -0.00565054 29.12548828 -0.00097656 C34.31588003 0.00463153 39.50621966 0.00137965 44.6966095 -0.00438309 C63.11192965 -0.02212136 81.53105928 -0.02220923 99.94140625 0.44970703 C101.1329834 0.47169159 102.32456055 0.49367615 103.55224609 0.5163269 C116.21862417 0.92276675 116.21862417 0.92276675 121 5.68017578 C124.64640735 12.98919675 124.81348285 22.33818359 122.44140625 30.12939453 C123.5673287 29.15128871 124.69205858 28.17181018 125.81640625 27.19189453 C126.91082031 26.24056641 126.91082031 26.24056641 128.02734375 25.27001953 C129.67959103 23.80492 131.30901587 22.31378675 132.91796875 20.80126953 C139.94883339 14.22751993 146.44284274 8.96275181 156.44140625 9.12939453 C159.47060968 11.84791043 160.71804153 14.19893398 161.44140625 18.12939453 C161.54871669 20.37858573 161.60009726 22.630649 161.6184082 24.88232422 C161.6249794 25.55280792 161.6315506 26.22329163 161.63832092 26.91409302 C161.65798271 29.12648648 161.66970115 31.33881225 161.6796875 33.55126953 C161.68376303 34.3098954 161.68783855 35.06852127 161.69203758 35.8501358 C161.712869 39.86639633 161.72718277 43.88262299 161.73657227 47.89892578 C161.74762467 52.03252479 161.78201894 56.16558372 161.82174397 60.29899216 C161.8479752 63.49046787 161.85626987 66.68181618 161.85985374 69.8733902 C161.8647037 71.3963307 161.87627209 72.91926612 161.89489174 74.44210052 C162.06609576 89.37341996 162.06609576 89.37341996 157.44140625 96.12939453 C154.27154457 97.71432537 150.90108364 97.42339874 147.44140625 97.12939453 C144.94140625 96.12939453 144.94140625 96.12939453 143.44140625 95.12939453 C146.45618515 93.62200508 149.09200866 94.55814199 152.34765625 95.07080078 C153.03859375 95.09013672 153.72953125 95.10947266 154.44140625 95.12939453 C158.10518689 91.46561389 157.55961727 86.85414359 157.58021545 81.87472534 C157.57823654 81.07060211 157.57625763 80.26647888 157.57421875 79.43798828 C157.57558334 78.58761993 157.57694794 77.73725159 157.57835388 76.8611145 C157.58037811 74.0963348 157.57406885 71.33166328 157.56640625 68.56689453 C157.56518768 67.62909149 157.56396912 66.69128845 157.56271362 65.72506714 C157.54434952 53.70813911 157.42264969 41.70207068 157.00390625 29.69189453 C156.96475098 28.5458374 156.9255957 27.39978027 156.88525391 26.21899414 C156.7094624 20.5817835 156.7094624 20.5817835 155.44140625 15.12939453 C148.17388627 15.14377143 144.96585501 16.70149329 139.80273438 21.75830078 C139.08537109 22.49951172 138.36800781 23.24072266 137.62890625 24.00439453 C136.1654152 25.46148361 134.70061674 26.91726096 133.234375 28.37158203 C132.60039795 29.01981934 131.9664209 29.66805664 131.31323242 30.3359375 C129.42921311 32.14107717 127.64754443 33.7316897 125.44140625 35.12939453 C122.19140625 34.81689453 122.19140625 34.81689453 119.44140625 34.12939453 C118.48123558 31.24888252 118.30534325 29.34501499 118.265625 26.34814453 C118.24177734 25.42388672 118.21792969 24.49962891 118.19335938 23.54736328 C118.15039556 21.60227424 118.11914216 19.65689122 118.09960938 17.71142578 C118.07189453 16.78716797 118.04417969 15.86291016 118.015625 14.91064453 C117.99375122 13.64317383 117.99375122 13.64317383 117.97143555 12.35009766 C117.61916658 9.97482183 117.61916658 9.97482183 115.57592773 8.37158203 C110.69909982 5.53350581 104.58462486 5.89450468 99.06640625 5.62939453 C97.62095889 5.55920194 96.17564077 5.48629433 94.73046875 5.41064453 C94.09834473 5.38035156 93.4662207 5.35005859 92.81494141 5.31884766 C90.75028776 5.15404913 88.69309599 4.90048523 86.6394043 4.6315918 C79.67295352 3.74173215 72.64247195 3.73536034 65.62890625 3.56689453 C64.79689697 3.54571564 63.9648877 3.52453674 63.10766602 3.50271606 C36.5605819 2.84476837 9.99432089 3.03872745 -16.55859375 3.12939453 C-12.36733538 -1.06186384 -5.60708799 -0.01451014 0 0 Z " fill="#B3BFDD" transform="translate(37.55859375,78.87060546875)"/>
<path d="M0 0 C8.23587404 4.72056195 13.49433506 11.85770899 16 21 C17.20353812 31.20692907 16.14154954 39.59177547 10 48 C7.25687187 50.88420329 4.42731141 52.98953465 1 55 C0.27296875 55.43183594 -0.4540625 55.86367187 -1.203125 56.30859375 C-9.59896294 60.43511954 -20.02382863 60.2998365 -29.03515625 58.33984375 C-38.0531015 55.12014459 -45.55475815 48.07161273 -49.6875 39.5 C-53.0881286 30.43165706 -52.85557543 21.88159339 -49 13 C-38.99845338 -4.25266791 -17.3748695 -8.96677349 0 0 Z M-42.60546875 6.3671875 C-49.32269438 14.23217437 -50.52136733 21.80562064 -50.30078125 31.89453125 C-49.46555083 40.51801418 -43.44508558 47.53144254 -37 53 C-30.56632022 56.91100221 -24.84279175 57.5325203 -17.4375 57.25 C-16.52419922 57.23195312 -15.61089844 57.21390625 -14.66992188 57.1953125 C-12.44546486 57.14872701 -10.22333033 57.08335485 -8 57 C-8 56.34 -8 55.68 -8 55 C-7.34 55 -6.68 55 -6 55 C-4.31237149 53.3545622 -2.6459651 51.68711423 -1 50 C-0.34 49.67 0.32 49.34 1 49 C1 48.34 1 47.68 1 47 C1.763125 46.731875 2.52625 46.46375 3.3125 46.1875 C6.56202047 44.75166538 8.31278115 43.33201678 9.94921875 40.16015625 C12.51430522 32.87205343 13.67382576 24.51539569 10.8125 17.125 C7.00379529 10.55826775 2.2550096 6.1700064 -4 2 C-5.32 2 -6.64 2 -8 2 C-8 1.34 -8 0.68 -8 0 C-26.66045717 -1.31417354 -26.66045717 -1.31417354 -42.60546875 6.3671875 Z " fill="#8EB4D2" transform="translate(64,16)"/>
<path d="M0 0 C8.08966307 6.84415092 13.30369612 13.30528919 14.9375 23.875 C15.45247584 32.16611099 13.10624896 39.76328829 7.79296875 46.15234375 C-0.4766355 54.67417994 -8.08567857 58.21901425 -19.9375 58.4375 C-26.61037725 58.43049149 -32.11386316 57.1694583 -38 54 C-34.53780789 52.94272843 -32.7192423 53.33728539 -29.28125 54.453125 C-24.3024429 55.64667465 -19.09795949 55.70868803 -14 56 C-14 55.34 -14 54.68 -14 54 C-13.27167969 53.73445313 -12.54335937 53.46890625 -11.79296875 53.1953125 C-9.01236557 52.00529212 -6.78159034 50.61048964 -4.3125 48.875 C-0.22009569 46 -0.22009569 46 2 46 C2.27585938 45.43410156 2.55171875 44.86820313 2.8359375 44.28515625 C3.60827583 42.76898873 4.42634269 41.27521742 5.2890625 39.80859375 C9.26429607 32.75313533 10.34416127 26.64547734 8.453125 18.703125 C6.59969828 13.22521935 3.86320191 9.24213461 -1 6 C-1 5.34 -1 4.68 -1 4 C-2.58298026 3.5196682 -4.16639978 3.04078388 -5.75 2.5625 C-6.63171875 2.29566406 -7.5134375 2.02882813 -8.421875 1.75390625 C-10.60565835 1.11531506 -12.78835498 0.53224167 -15 0 C-15 -0.66 -15 -1.32 -15 -2 C-21.12783792 -1.74414038 -26.13416052 -0.89581276 -31.640625 1.84765625 C-34 3 -34 3 -36.796875 4.05859375 C-44.08833754 6.90620547 -47.32516632 10.16250459 -51 17 C-51.66 17.99 -52.32 18.98 -53 20 C-52.61551085 12.31021705 -47.56768991 7.27509738 -42.1875 2.25 C-30.72624523 -7.33020914 -12.3904146 -9.26783027 0 0 Z " fill="#94B4CA" transform="translate(138,17)"/>
<path d="M0 0 C0.33 0 0.66 0 1 0 C0.83991455 1.13880615 0.6798291 2.2776123 0.51489258 3.45092773 C-0.30289945 10.86841957 -0.20596921 18.33179608 -0.23828125 25.78515625 C-0.24235678 26.58332701 -0.2464323 27.38149776 -0.25063133 28.20385551 C-0.27137044 32.42113856 -0.28572949 36.63839014 -0.29516602 40.85571289 C-0.3062637 45.19205572 -0.34073668 49.52789019 -0.38033772 53.86405277 C-0.40654276 57.2193646 -0.41486079 60.57455511 -0.41844749 63.92996025 C-0.42329572 65.52825836 -0.43485902 67.12655169 -0.45348549 68.72474861 C-0.67202982 80.44476304 -0.67202982 80.44476304 4 91 C8.67412184 95.67412184 17.57012951 94.16194363 23.78515625 94.17700195 C25.55691727 94.18685875 25.55691727 94.18685875 27.36447144 94.19691467 C31.26380781 94.21658832 35.16313069 94.22830056 39.0625 94.23828125 C40.40894592 94.24233216 41.75539164 94.24644918 43.10183716 94.25063133 C49.42469497 94.2696508 55.7475413 94.28389294 62.07042217 94.2922433 C69.35694391 94.30202734 76.64316282 94.32839047 83.92957783 94.36874419 C89.5722113 94.39891809 95.21475794 94.41371305 100.85747051 94.41702431 C104.2234871 94.41937178 107.58917893 94.42829327 110.95510864 94.45348549 C114.70860132 94.47777052 118.46129695 94.47693138 122.21484375 94.4699707 C123.32463593 94.48278076 124.4344281 94.49559082 125.57785034 94.50878906 C131.67843817 94.46750536 135.4146653 94.18455927 140 90 C143.01642618 84.74537273 143.51037888 79.96822428 143.6875 74.0625 C143.72166016 73.28326172 143.75582031 72.50402344 143.79101562 71.70117188 C143.8726071 69.80125607 143.93799885 67.90065597 144 66 C147.92519679 66.51130743 149.79184796 67.30793689 152.4453125 70.23828125 C153.04730469 70.89376953 153.64929688 71.54925781 154.26953125 72.22460938 C154.88183594 72.91361328 155.49414062 73.60261719 156.125 74.3125 C156.74503906 74.98990234 157.36507812 75.66730469 158.00390625 76.36523438 C160.8332274 79.47748764 163.50949499 82.60721259 166 86 C162.2285078 84.43727522 159.84402385 82.07921327 157 79.1875 C156.154375 78.33542969 155.30875 77.48335938 154.4375 76.60546875 C152 74 152 74 149.8125 71.23828125 C148.19481016 68.92504431 148.19481016 68.92504431 146 68 C146.02320313 68.76183594 146.04640625 69.52367187 146.0703125 70.30859375 C146.20469953 77.99745179 146.17250281 85.00259483 142.4375 91.875 C135.8803672 97.59147475 127.3523322 97.43478768 119.07373047 97.38818359 C117.33298248 97.39606903 117.33298248 97.39606903 115.55706787 97.40411377 C111.74363514 97.4172543 107.93062404 97.40859754 104.1171875 97.3984375 C101.45638515 97.40045966 98.79559535 97.4033681 96.13479614 97.40713501 C90.56849646 97.4125768 85.00231661 97.40544099 79.43603516 97.39111328 C73.01422825 97.37477363 66.59270695 97.38009099 60.1709069 97.3965925 C54.63942687 97.41023334 49.10803249 97.41211486 43.57654107 97.40427649 C40.28048317 97.39961624 36.98458788 97.40011993 33.68853378 97.40888596 C30.01465346 97.41651457 26.34132011 97.40487618 22.66748047 97.38818359 C21.04330704 97.39729263 21.04330704 97.39729263 19.38632202 97.40658569 C12.36694594 97.34757809 7.35159812 96.62692826 1.6875 92.1875 C-5.30707829 83.12045407 -3.15734421 67.44037396 -3.16796875 56.5859375 C-3.17296135 54.76057968 -3.17296135 54.76057968 -3.17805481 52.89834595 C-3.18307521 50.3489011 -3.18546467 47.79944979 -3.18530273 45.25 C-3.18749859 41.37749384 -3.2057325 37.50526884 -3.22460938 33.6328125 C-3.22754259 31.13802179 -3.22952787 28.64322975 -3.23046875 26.1484375 C-3.23765427 25.00748627 -3.24483978 23.86653503 -3.25224304 22.69100952 C-3.19747636 3.19747636 -3.19747636 3.19747636 0 0 Z " fill="#DBD8E6" transform="translate(15,87)"/>
<path d="M0 0 C3.81731623 0.54533089 5.55691189 2.06829427 8 5 C10.05889733 9.09596889 10.24105725 12.51013375 10.1875 17.0625 C10.17783203 18.87427734 10.17783203 18.87427734 10.16796875 20.72265625 C10.03328371 23.35058061 9.7772803 25.50648479 9 28 C10.12592245 27.02189418 11.25065233 26.04241565 12.375 25.0625 C13.10460937 24.42828125 13.83421875 23.7940625 14.5859375 23.140625 C16.23818478 21.67552547 17.86760962 20.18439222 19.4765625 18.671875 C26.50742714 12.0981254 33.00143649 6.83335727 43 7 C46.02920343 9.7185159 47.27663528 12.06953945 48 16 C48.10731044 18.24919119 48.15869101 20.50125447 48.17700195 22.75292969 C48.18685875 23.75865524 48.18685875 23.75865524 48.19691467 24.78469849 C48.21657646 26.99709195 48.2282949 29.20941772 48.23828125 31.421875 C48.24235678 32.18050087 48.2464323 32.93912674 48.25063133 33.72074127 C48.27146275 37.73700179 48.28577652 41.75322846 48.29516602 45.76953125 C48.30621842 49.90313026 48.34061269 54.03618919 48.38033772 58.16959763 C48.40656895 61.36107334 48.41486362 64.55242165 48.41844749 67.74399567 C48.42329745 69.26693617 48.43486584 70.78987159 48.45348549 72.31270599 C48.62468951 87.24402543 48.62468951 87.24402543 44 94 C40.83013832 95.58493084 37.45967739 95.2940042 34 95 C31.5 94 31.5 94 30 93 C33.0147789 91.49261055 35.65060241 92.42874746 38.90625 92.94140625 C39.5971875 92.96074219 40.288125 92.98007813 41 93 C44.66378064 89.33621936 44.11821102 84.72474906 44.1388092 79.74533081 C44.13584084 78.53914597 44.13584084 78.53914597 44.1328125 77.30859375 C44.13417709 76.4582254 44.13554169 75.60785706 44.13694763 74.73171997 C44.13897186 71.96694027 44.1326626 69.20226875 44.125 66.4375 C44.12378143 65.49969696 44.12256287 64.56189392 44.12130737 63.59567261 C44.10294327 51.57874458 43.98124344 39.57267615 43.5625 27.5625 C43.52334473 26.41644287 43.48418945 25.27038574 43.44384766 24.08959961 C43.26805615 18.45238897 43.26805615 18.45238897 42 13 C34.33413117 13.49402266 29.13752717 15.24836606 23 20 C22.236875 20.4125 21.47375 20.825 20.6875 21.25 C17.51292679 23.31716395 15.19661854 25.78966798 12.6484375 28.57421875 C11 30 11 30 8 30 C7.99589111 29.36497559 7.99178223 28.72995117 7.98754883 28.07568359 C7.95447902 25.17453523 7.88382254 22.27544986 7.8125 19.375 C7.80379883 17.87646484 7.80379883 17.87646484 7.79492188 16.34765625 C7.6432999 9.89690166 7.6432999 9.89690166 4.57421875 4.4140625 C3.72472656 3.61742188 2.87523437 2.82078125 2 2 C1.34 1.34 0.68 0.68 0 0 Z " fill="#7EB3D0" transform="translate(151,81)"/>
<path d="M0 0 C0.66 0.33 1.32 0.66 2 1 C1.50757813 1.598125 1.01515625 2.19625 0.5078125 2.8125 C-1.71619183 7.5140221 -1.2793399 11.87323131 -1.125 17 C-1.08142664 18.95823816 -1.04221719 20.9165793 -1.0078125 22.875 C-0.98348145 23.73867187 -0.95915039 24.60234375 -0.93408203 25.4921875 C-1 28 -1 28 -1.56201172 30.5703125 C-2.03158831 33.17523237 -1.69663741 34.49161299 -1 37 C-0.99591722 38.61541801 -1.05276606 40.23164483 -1.15625 41.84375 C-1.23552734 43.21853516 -1.23552734 43.21853516 -1.31640625 44.62109375 C-1.43880208 46.54036458 -1.56119792 48.45963542 -1.68359375 50.37890625 C-1.76287109 51.75369141 -1.76287109 51.75369141 -1.84375 53.15625 C-1.89724609 53.98962891 -1.95074219 54.82300781 -2.00585938 55.68164062 C-2.00001875 57.99258257 -1.56917953 59.77359906 -1 62 C-0.93172688 63.66279187 -0.91511796 65.32814511 -0.9375 66.9921875 C-0.94523437 67.94480469 -0.95296875 68.89742188 -0.9609375 69.87890625 C-0.98687733 71.86849091 -1.01291819 73.85807426 -1.0390625 75.84765625 C-1.07826499 80.68916358 -1.0327586 85.23962831 0 90 C7.50410193 91.61557983 14.55844219 92.257253 22.22265625 92.125 C23.76184975 92.11364014 23.76184975 92.11364014 25.33213806 92.10205078 C28.57577354 92.07786584 31.81903154 92.04063103 35.0625 92 C39.34504388 91.94644031 43.62740034 91.90663795 47.91015625 91.875 C48.8739772 91.85840332 49.83779816 91.84180664 50.83082581 91.82470703 C57.12118069 91.77976785 62.88496413 92.52669 69 94 C69 94.33 69 94.66 69 95 C61.16750629 95.04646363 53.33504525 95.08194021 45.50244808 95.10362434 C41.86494495 95.1140348 38.22753653 95.12814357 34.59008789 95.15087891 C31.07579691 95.1727055 27.56159669 95.1845892 24.04724312 95.18975449 C22.06262847 95.19521541 20.07805002 95.21081255 18.0934906 95.22659302 C6.44614603 95.22803434 6.44614603 95.22803434 1 93 C-4.15717978 87.84282022 -5.24896393 82.90108113 -5.2746582 75.76635742 C-5.27976913 75.05671341 -5.28488007 74.3470694 -5.29014587 73.61592102 C-5.30400097 71.27901684 -5.30308783 68.94240904 -5.30078125 66.60546875 C-5.30467121 64.97268058 -5.3090065 63.33989341 -5.31376648 61.70710754 C-5.32122049 58.28671996 -5.32094394 54.86643561 -5.31567383 51.44604492 C-5.30988869 47.07826338 -5.32679084 42.7109072 -5.3500185 38.34319592 C-5.3648048 34.97070372 -5.36562076 31.59831271 -5.36250877 28.22579384 C-5.36301981 26.61635816 -5.36821634 25.00691648 -5.37832069 23.39751244 C-5.46577103 7.51700141 -5.46577103 7.51700141 -2 1 C-1.34 0.67 -0.68 0.34 0 0 Z " fill="#621BAF" transform="translate(19,87)"/>
<path d="M0 0 C0.33 0 0.66 0 1 0 C1.04955876 5.87156961 1.08579487 11.74301655 1.10986328 17.61474609 C1.11990052 19.61086143 1.1335332 21.60696214 1.15087891 23.60302734 C1.17522735 26.47757587 1.18650605 29.35192941 1.1953125 32.2265625 C1.20563507 33.11429352 1.21595764 34.00202454 1.22659302 34.91665649 C1.22744623 39.6633946 0.95658339 43.57944367 -1 48 C-3 50 -3 50 -4.8828125 50.22265625 C-11.86920706 49.72362807 -15.22568073 46.91100735 -20 42 C-20.62003906 41.40316406 -21.24007812 40.80632812 -21.87890625 40.19140625 C-24.6874698 37.46776687 -27.2757922 34.70580966 -29.6875 31.625 C-32.06970461 28.92087585 -32.66726132 28.60340111 -36 28 C-35.94779297 29.71896484 -35.94779297 29.71896484 -35.89453125 31.47265625 C-35.86637297 33.00258939 -35.83907501 34.53253854 -35.8125 36.0625 C-35.78736328 36.81466797 -35.76222656 37.56683594 -35.73632812 38.34179688 C-35.66708539 43.67348765 -36.48029834 47.2770521 -39 52 C-43.40564581 56.08328148 -45.90597681 57.12570787 -51.82666016 57.11352539 C-53.04777496 57.11344986 -54.26888977 57.11337433 -55.52700806 57.11329651 C-56.86435995 57.10818952 -58.20171143 57.10297352 -59.5390625 57.09765625 C-60.90383859 57.0957914 -62.26861534 57.09436781 -63.63339233 57.09336853 C-67.22715093 57.08954863 -70.82086917 57.07972283 -74.41461182 57.06866455 C-78.08108982 57.05843911 -81.74757435 57.05386848 -85.4140625 57.04882812 C-92.60939341 57.0381001 -99.80469105 57.02102999 -107 57 C-107 56.67 -107 56.34 -107 56 C-105.76846191 55.97494385 -104.53692383 55.9498877 -103.26806641 55.92407227 C-98.70952507 55.83007388 -94.15113882 55.72983485 -89.59277344 55.62768555 C-87.61787538 55.58430797 -85.64293913 55.542635 -83.66796875 55.50268555 C-80.8332161 55.44505127 -77.99865622 55.3813373 -75.1640625 55.31640625 C-74.27756012 55.29969376 -73.39105774 55.28298126 -72.47769165 55.26576233 C-68.10074845 55.28914789 -68.10074845 55.28914789 -64 54 C-60.46112058 53.76703302 -56.9287605 53.60566512 -53.38476562 53.48242188 C-47.43405025 53.24652375 -47.43405025 53.24652375 -42 51 C-38.85032622 46.04093915 -39.61109734 39.45745966 -39.52148438 33.7734375 C-39.49505859 32.9484375 -39.46863281 32.1234375 -39.44140625 31.2734375 C-39.42795166 30.52497559 -39.41449707 29.77651367 -39.40063477 29.00537109 C-38.89364445 26.46763897 -38.04983799 25.54191081 -36 24 C-33.06593867 24.14670307 -31.49409424 24.60813216 -29.1875 26.4375 C-28 28 -28 28 -28 30 C-27.34 30 -26.68 30 -26 30 C-22 34.47058824 -22 34.47058824 -22 37 C-20.515 37.495 -20.515 37.495 -19 38 C-17.24584235 39.6016222 -15.84768104 41.20715378 -14.4375 43.125 C-10.68478347 46.01170502 -6.62100413 45.8236258 -2 46 C-1.22930703 41.93610577 -0.90267593 38.15213371 -0.96875 34.01953125 C-1.02544888 26.89673502 -0.78791461 19.80365984 -0.5 12.6875 C-0.45230469 11.45837891 -0.40460938 10.22925781 -0.35546875 8.96289062 C-0.23921484 5.97516512 -0.12069607 2.98754877 0 0 Z " fill="#7AA4D9" transform="translate(195,125)"/>
<path d="M0 0 C12.18133766 -0.59180588 22.35263958 0.23135038 32.21484375 8.23046875 C39.00366603 14.95987027 42.2572072 22.59538269 42.5 32.125 C42.35343967 40.90137769 40.05813764 47.73315814 33.94921875 54.15625 C31.72382368 56.02194534 29.50345511 57.53146996 27 59 C26.27296875 59.43183594 25.5459375 59.86367187 24.796875 60.30859375 C16.40103706 64.43511954 5.97617137 64.2998365 -3.03515625 62.33984375 C-12.0531015 59.12014459 -19.55475815 52.07161273 -23.6875 43.5 C-27.08900201 34.42932797 -26.79256127 25.92469693 -23 17 C-22.34 16.67 -21.68 16.34 -21 16 C-21.144375 16.57105469 -21.28875 17.14210938 -21.4375 17.73046875 C-23.4593301 26.56193493 -25.30392151 36.9501721 -20.38671875 45.09375 C-14.74181921 52.85349922 -9.44975369 58.73079949 0.4074707 60.41015625 C2.89121902 60.60623506 5.32139814 60.65760605 7.8125 60.625 C9.12081787 60.61351929 9.12081787 60.61351929 10.45556641 60.60180664 C19.71125324 60.28527759 27.15289911 57.42216972 33.5625 50.5625 C38.17205519 44.83286598 39.56474476 38.84584202 39.5 31.6875 C39.49355469 30.94201904 39.48710938 30.19653809 39.48046875 29.4284668 C39.23908902 22.11481986 37.50755384 16.43276591 32.16796875 11.20703125 C24.33959524 4.95359679 16.65864862 2.07972723 6.75 1.4375 C5.48671875 1.35371094 4.2234375 1.26992187 2.921875 1.18359375 C1.95765625 1.12300781 0.9934375 1.06242188 0 1 C0 0.67 0 0.34 0 0 Z " fill="#E7EAED" transform="translate(38,12)"/>
<path d="M0 0 C7.53662653 7.06558737 11.88291935 13.78453284 12.53125 24.22265625 C12.18119969 33.96572316 8.36973609 41.21560689 1.36328125 47.7734375 C-7.31168271 55.02528346 -15.53350111 56.54964184 -26.65234375 56.203125 C-31.81345847 55.71330892 -36.01870217 54.27869162 -40.5625 51.83203125 C-36.52902615 50.21864171 -33.59751734 51.67081508 -29.5625 52.83203125 C-26.7664562 53.15658417 -24.0006956 53.21335873 -21.1875 53.20703125 C-20.44016602 53.20541992 -19.69283203 53.20380859 -18.92285156 53.20214844 C-13.08172839 53.07245872 -8.51610301 52.07049153 -3.5625 48.83203125 C-2.675625 48.27515625 -1.78875 47.71828125 -0.875 47.14453125 C5.52908753 40.74044372 9.35501451 33.58909589 9.75 24.45703125 C9.46811481 15.2331213 5.94596749 9.19586612 -0.5625 2.83203125 C-7.39754131 -3.49038196 -13.64750483 -4.63124258 -22.625 -4.41796875 C-23.49705078 -4.4128125 -24.36910156 -4.40765625 -25.26757812 -4.40234375 C-29.79884077 -4.34746093 -34.10569692 -4.07542947 -38.5625 -3.16796875 C-27.69730576 -12.09119389 -10.0692158 -8.51892495 0 0 Z " fill="#EAEDF0" transform="translate(140.5625,19.16796875)"/>
<path d="M0 0 C0.33 0 0.66 0 1 0 C1.03738281 0.71285156 1.07476562 1.42570313 1.11328125 2.16015625 C1.52340177 8.13504928 2.37262272 12.63101165 5 18 C5 18.66 5 19.32 5 20 C12.50410193 21.61557983 19.55844219 22.257253 27.22265625 22.125 C28.76184975 22.11364014 28.76184975 22.11364014 30.33213806 22.10205078 C33.57577354 22.07786584 36.81903154 22.04063103 40.0625 22 C44.34504388 21.94644031 48.62740034 21.90663795 52.91015625 21.875 C53.8739772 21.85840332 54.83779816 21.84180664 55.83082581 21.82470703 C62.12118069 21.77976785 67.88496413 22.52669 74 24 C74 24.33 74 24.66 74 25 C66.16750629 25.04646363 58.33504525 25.08194021 50.50244808 25.10362434 C46.86494495 25.1140348 43.22753653 25.12814357 39.59008789 25.15087891 C36.07579691 25.1727055 32.56159669 25.1845892 29.04724312 25.18975449 C27.06262847 25.19521541 25.07805002 25.21081255 23.0934906 25.22659302 C11.44614603 25.22803434 11.44614603 25.22803434 6 23 C2.08914257 19.08914257 0.12878054 15.19699606 -0.1953125 9.66796875 C-0.17210937 8.51941406 -0.14890625 7.37085938 -0.125 6.1875 C-0.10695313 5.02605469 -0.08890625 3.86460937 -0.0703125 2.66796875 C-0.04710937 1.78753906 -0.02390625 0.90710938 0 0 Z " fill="#6C4BBD" transform="translate(14,157)"/>
<path d="M0 0 C2.25 -0.3125 2.25 -0.3125 5 0 C9.91821227 4.91821227 10.12237421 9.03542126 10.17700195 15.75292969 C10.18357315 16.42341339 10.19014435 17.09389709 10.19691467 17.78469849 C10.21657646 19.99709195 10.2282949 22.20941772 10.23828125 24.421875 C10.24235678 25.18050087 10.2464323 25.93912674 10.25063133 26.72074127 C10.27146275 30.73700179 10.28577652 34.75322846 10.29516602 38.76953125 C10.30621842 42.90313026 10.34061269 47.03618919 10.38033772 51.16959763 C10.40656895 54.36107334 10.41486362 57.55242165 10.41844749 60.74399567 C10.42329745 62.26693617 10.43486584 63.78987159 10.45348549 65.31270599 C10.62468951 80.24402543 10.62468951 80.24402543 6 87 C2.83013832 88.58493084 -0.54032261 88.2940042 -4 88 C-6.5 87 -6.5 87 -8 86 C-5.47946405 84.73973202 -4.1457902 85.08125555 -1.375 85.4375 C-0.55773437 85.53933594 0.25953125 85.64117187 1.1015625 85.74609375 C2.04128906 85.87177734 2.04128906 85.87177734 3 86 C6.58420555 81.38131789 7.50093514 78.59322916 7.50170898 72.58935547 C7.50711197 71.87314026 7.51251495 71.15692505 7.51808167 70.41900635 C7.53051901 68.06797077 7.51411611 65.71817161 7.49609375 63.3671875 C7.49624882 61.7262465 7.49773916 60.08530513 7.50050354 58.44436646 C7.50188517 55.01303832 7.48936678 51.5821294 7.46655273 48.15087891 C7.43812362 43.75465798 7.44092059 39.35913084 7.45364285 34.9628582 C7.46059871 31.57762735 7.4528126 28.19255673 7.44038582 24.80734634 C7.43587356 23.18624613 7.43553255 21.56512871 7.43945122 19.94402695 C7.44236376 17.67961098 7.42585741 15.41615061 7.40405273 13.15185547 C7.39594826 11.22042191 7.39594826 11.22042191 7.38768005 9.24996948 C6.976294 5.80126968 6.4101072 4.43952352 4 2 C1.91665365 0.7483533 1.91665365 0.7483533 0 0 Z " fill="#ECF0F2" transform="translate(189,88)"/>
<path d="M0 0 C-0.62648438 0.6290625 -1.25296875 1.258125 -1.8984375 1.90625 C-6.92017339 7.16560746 -10.17612227 10.70279721 -11 18 C-11.144375 19.27875 -11.28875 20.5575 -11.4375 21.875 C-11.23001439 28.08736332 -8.24665251 33.6659291 -3.9921875 38.0859375 C-2.0404334 39.79282208 -0.0352027 41.39482967 2 43 C3.01467857 43.98510274 4.01997874 44.98041267 5 46 C-0.00283577 46 -2.4625198 45.02305638 -6.125 41.5625 C-12.8657398 34.16604621 -15.89769984 27.29343415 -15.4921875 17.19140625 C-14.47574222 10.60064597 -11.38288811 4.12688088 -6 0 C-3 -1 -3 -1 0 0 Z " fill="#672DB2" transform="translate(100,23)"/>
<path d="M0 0 C0.98976837 -0.0033284 1.97953674 -0.0066568 2.9992981 -0.01008606 C5.0853021 -0.01513018 7.17131412 -0.01749517 9.25732422 -0.01733398 C12.42819666 -0.01951945 15.59872028 -0.0376994 18.76953125 -0.05664062 C20.80468632 -0.05957538 22.83984303 -0.06155963 24.875 -0.0625 C26.28167435 -0.07327827 26.28167435 -0.07327827 27.71676636 -0.08427429 C33.62824184 -0.06401384 38.84137645 0.69430271 44.5703125 2.16796875 C44.5703125 2.49796875 44.5703125 2.82796875 44.5703125 3.16796875 C32.67845391 4.20023577 20.82672584 4.3542103 8.89526367 4.35327148 C5.71845825 4.35549631 2.5419804 4.3738298 -0.63476562 4.39257812 C-2.65624882 4.39550594 -4.67773365 4.39749482 -6.69921875 4.3984375 C-8.12244194 4.40921577 -8.12244194 4.40921577 -9.57441711 4.42021179 C-10.88299934 4.41559685 -10.88299934 4.41559685 -12.21801758 4.41088867 C-12.98551834 4.41231369 -13.7530191 4.41373871 -14.54377747 4.41520691 C-16.4296875 4.16796875 -16.4296875 4.16796875 -18.4296875 2.16796875 C-14.85736211 -1.40435664 -4.68766959 0.00553873 0 0 Z " fill="#6B51B9" transform="translate(44.4296875,80.83203125)"/>
<path d="M0 0 C-1.010625 0.37125 -2.02125 0.7425 -3.0625 1.125 C-8.66890534 3.524496 -13.84165435 7.73609059 -17 13 C-17.59070014 14.94603274 -17.59070014 14.94603274 -18 17 C-18.350625 17.7425 -18.70125 18.485 -19.0625 19.25 C-21.41175056 26.14113497 -19.78915193 31.61896461 -17 38 C-16.608125 38.99 -16.21625 39.98 -15.8125 41 C-15.544375 41.66 -15.27625 42.32 -15 43 C-14.34 43 -13.68 43 -13 43 C-12.67 43.66 -12.34 44.32 -12 45 C-11.01 45.33 -10.02 45.66 -9 46 C-9 46.99 -9 47.98 -9 49 C-14.40944749 48.16777731 -16.87748865 44.17089076 -20 40 C-24.24244626 33.02049164 -23.83854045 25.03823053 -22.53125 17.18359375 C-21.00758683 11.24312127 -18.41432241 7.21473868 -14 3 C-13.360625 2.38125 -12.72125 1.7625 -12.0625 1.125 C-8.08518286 -1.04444571 -4.25736203 -1.41912068 0 0 Z " fill="#6930B8" transform="translate(37,18)"/>
<path d="M0 0 C0.85916016 -0.01611328 1.71832031 -0.03222656 2.60351562 -0.04882812 C9.58476408 -0.05416139 14.07347593 1.40315062 19.9375 5.3125 C19.6075 6.3025 19.2775 7.2925 18.9375 8.3125 C14.3175 6.6625 9.6975 5.0125 4.9375 3.3125 C4.9375 2.6525 4.9375 1.9925 4.9375 1.3125 C-1.19033792 1.56835962 -6.19666052 2.41668724 -11.703125 5.16015625 C-14.0625 6.3125 -14.0625 6.3125 -16.859375 7.37109375 C-24.15083754 10.21870547 -27.38766632 13.47500459 -31.0625 20.3125 C-31.7225 21.3025 -32.3825 22.2925 -33.0625 23.3125 C-32.63598818 14.78226369 -26.29293341 9.25857439 -20.3828125 3.7578125 C-14.19619242 -0.09580607 -7.06118643 -0.02660583 0 0 Z " fill="#A6A0D0" transform="translate(118.0625,13.6875)"/>
<path d="M0 0 C0.33 0 0.66 0 1 0 C0.84152588 1.17361084 0.68305176 2.34722168 0.51977539 3.55639648 C-0.23489908 10.38570582 -0.23345803 17.23415238 -0.31640625 24.09765625 C-0.3370187 25.54211462 -0.35801616 26.98656755 -0.37937927 28.43101501 C-0.43415745 32.20380192 -0.48375883 35.97663918 -0.53222656 39.74951172 C-0.58276809 43.61104734 -0.63828242 47.47251125 -0.69335938 51.33398438 C-0.80039829 58.88926192 -0.90196002 66.44459974 -1 74 C-2.94237409 70.72957176 -3.25257195 68.28422366 -3.25878906 64.50390625 C-3.26824554 62.85068359 -3.26824554 62.85068359 -3.27789307 61.1640625 C-3.2738446 59.97554687 -3.26979614 58.78703125 -3.265625 57.5625 C-3.26753845 56.33144531 -3.2694519 55.10039062 -3.27142334 53.83203125 C-3.27313347 50.55520597 -3.26509157 47.27857012 -3.25390625 44.00177002 C-3.24747916 40.70818618 -3.2627641 37.41465987 -3.2734375 34.12109375 C-3.27211448 31.58072818 -3.26954914 29.04036289 -3.265625 26.5 C-3.26967346 25.32767822 -3.27372192 24.15535645 -3.27789307 22.94750977 C-3.16728041 3.16728041 -3.16728041 3.16728041 0 0 Z " fill="#D1C7DC" transform="translate(15,87)"/>
<path d="M0 0 C1 2 1 2 0.0625 5.3125 C-1.77305329 12.26228451 -2.52576989 20.55581884 0.5 27.25 C4.52519592 33.91628938 9.66253582 40.47036793 17.08203125 43.359375 C23.92321865 44.86132244 31.02074267 44.84942271 38 45 C38 45.33 38 45.66 38 46 C15.81653866 47.03959985 15.81653866 47.03959985 9 41 C8.28714844 40.40703125 7.57429688 39.8140625 6.83984375 39.203125 C-0.45016252 32.5878743 -3.59158198 25.02416576 -4.25 15.3125 C-4.20613219 10.71515323 -3.37833689 3.37833689 0 0 Z " fill="#D3CFE1" transform="translate(16,28)"/>
<path d="M0 0 C0.33 0 0.66 0 1 0 C1.04955876 5.87156961 1.08579487 11.74301655 1.10986328 17.61474609 C1.11990052 19.61086143 1.1335332 21.60696214 1.15087891 23.60302734 C1.17522735 26.47757587 1.18650605 29.35192941 1.1953125 32.2265625 C1.20563507 33.11429352 1.21595764 34.00202454 1.22659302 34.91665649 C1.22744623 39.6633946 0.95658339 43.57944367 -1 48 C-3 50 -3 50 -5.05859375 50.046875 C-6.23615234 49.89992188 -6.23615234 49.89992188 -7.4375 49.75 C-8.21996094 49.66234375 -9.00242188 49.5746875 -9.80859375 49.484375 C-12 49 -12 49 -15 47 C-15 45.68 -15 44.36 -15 43 C-15.66 43 -16.32 43 -17 43 C-16.67 42.34 -16.34 41.68 -16 41 C-15.319375 41.9590625 -15.319375 41.9590625 -14.625 42.9375 C-10.74986164 45.98225157 -6.8077353 45.81649865 -2 46 C-1.22930703 41.93610577 -0.90267593 38.15213371 -0.96875 34.01953125 C-1.02544888 26.89673502 -0.78791461 19.80365984 -0.5 12.6875 C-0.45230469 11.45837891 -0.40460938 10.22925781 -0.35546875 8.96289062 C-0.23921484 5.97516512 -0.12069607 2.98754877 0 0 Z " fill="#79B7DB" transform="translate(195,125)"/>
<path d="M0 0 C3.92519679 0.51130743 5.79184796 1.30793689 8.4453125 4.23828125 C9.04730469 4.89376953 9.64929688 5.54925781 10.26953125 6.22460938 C10.88183594 6.91361328 11.49414062 7.60261719 12.125 8.3125 C12.74503906 8.98990234 13.36507812 9.66730469 14.00390625 10.36523438 C16.8332274 13.47748764 19.50949499 16.60721259 22 20 C18.2285078 18.43727522 15.84402385 16.07921327 13 13.1875 C12.154375 12.33542969 11.30875 11.48335937 10.4375 10.60546875 C8 8 8 8 5.8125 5.23828125 C4.19481016 2.92504431 4.19481016 2.92504431 2 2 C2.02320313 2.76183594 2.04640625 3.52367187 2.0703125 4.30859375 C2.3331173 19.34478289 2.3331173 19.34478289 -1.875 25.9375 C-3.91833596 27.92073785 -5.28970972 29.15303429 -8 30 C-9.34313401 29.70865843 -10.67913658 29.37974823 -12 29 C-11.45730469 28.72027344 -10.91460937 28.44054687 -10.35546875 28.15234375 C-9.64003906 27.75144531 -8.92460937 27.35054687 -8.1875 26.9375 C-7.47980469 26.55464844 -6.77210938 26.17179687 -6.04296875 25.77734375 C-1.99846864 22.25870599 -0.91686428 17.74345383 -0.48828125 12.59765625 C-0.41632213 11.08651473 -0.35785226 9.57467392 -0.3125 8.0625 C-0.27833984 7.28326172 -0.24417969 6.50402344 -0.20898438 5.70117188 C-0.1273929 3.80125607 -0.06200115 1.90065597 0 0 Z " fill="#EBEEF1" transform="translate(159,153)"/>
<path d="M0 0 C0 0.99 0 1.98 0 3 C-2.70289308 4.35144654 -4.80069806 4.11975165 -7.82666016 4.11352539 C-9.04777496 4.11344986 -10.26888977 4.11337433 -11.52700806 4.11329651 C-12.86435995 4.10818952 -14.20171143 4.10297352 -15.5390625 4.09765625 C-16.90383859 4.0957914 -18.26861534 4.09436781 -19.63339233 4.09336853 C-23.22715093 4.08954863 -26.82086917 4.07972283 -30.41461182 4.06866455 C-34.08108982 4.05843911 -37.74757435 4.05386848 -41.4140625 4.04882812 C-48.60939341 4.0381001 -55.80469105 4.02102999 -63 4 C-63 3.67 -63 3.34 -63 3 C-61.76846191 2.97494385 -60.53692383 2.9498877 -59.26806641 2.92407227 C-54.70952507 2.83007388 -50.15113882 2.72983485 -45.59277344 2.62768555 C-43.61787538 2.58430797 -41.64293913 2.542635 -39.66796875 2.50268555 C-36.8332161 2.44505127 -33.99865622 2.3813373 -31.1640625 2.31640625 C-30.27756012 2.29969376 -29.39105774 2.28298126 -28.47769165 2.26576233 C-24.10074845 2.28914789 -24.10074845 2.28914789 -20 1 C-17.18317082 0.7659865 -14.38397921 0.5796224 -11.5625 0.4375 C-10.78583984 0.39431641 -10.00917969 0.35113281 -9.20898438 0.30664062 C-6.13588424 0.13988325 -3.07810989 0 0 0 Z " fill="#7F8DCE" transform="translate(151,178)"/>
<path d="M0 0 C1.24716797 0.02030273 1.24716797 0.02030273 2.51953125 0.04101562 C4.55497066 0.07610941 6.59007291 0.12990772 8.625 0.1875 C8.625 1.1775 8.625 2.1675 8.625 3.1875 C7.40683594 3.32027344 6.18867187 3.45304687 4.93359375 3.58984375 C3.3098893 3.76816967 1.68619175 3.94655843 0.0625 4.125 C-0.73736328 4.21201172 -1.53722656 4.29902344 -2.36132812 4.38867188 C-4.70026758 4.64643255 -7.03754132 4.91669223 -9.375 5.1875 C-10.65890625 5.32671875 -11.9428125 5.4659375 -13.265625 5.609375 C-18.92874796 6.66231746 -22.50015497 11.16362247 -26.375 15.1875 C-25.05233957 11.092881 -23.56349929 9.12383111 -20.125 6.5625 C-19.37734375 5.99273437 -18.6296875 5.42296875 -17.859375 4.8359375 C-11.62981278 0.70248584 -7.32787215 -0.22790033 0 0 Z " fill="#ADAAD5" transform="translate(43.375,12.8125)"/>
<path d="M0 0 C3.81731623 0.54533089 5.55691189 2.06829427 8 5 C10.05889733 9.09596889 10.24105725 12.51013375 10.1875 17.0625 C10.17783203 18.87427734 10.17783203 18.87427734 10.16796875 20.72265625 C10.03328371 23.35058061 9.7772803 25.50648479 9 28 C10.12592245 27.02189418 11.25065233 26.04241565 12.375 25.0625 C13.46167969 24.11697266 13.46167969 24.11697266 14.5703125 23.15234375 C16.2717921 21.64508449 17.95255627 20.11426484 19.6171875 18.56640625 C20.48601562 17.76074219 21.35484375 16.95507812 22.25 16.125 C23.46429688 14.98417969 23.46429688 14.98417969 24.703125 13.8203125 C26.91851206 12.06458058 28.24120956 11.39230506 31 11 C31 11.66 31 12.32 31 13 C29.33713521 14.00630932 27.66945456 15.00466124 26 16 C23.910515 17.80184161 21.88252477 19.61262634 19.875 21.5 C19.35035156 21.98597656 18.82570312 22.47195312 18.28515625 22.97265625 C16.23336939 24.87899999 14.20730108 26.7724509 12.3203125 28.84375 C11 30 11 30 8 30 C7.99589111 29.36497559 7.99178223 28.72995117 7.98754883 28.07568359 C7.95447902 25.17453523 7.88382254 22.27544986 7.8125 19.375 C7.80379883 17.87646484 7.80379883 17.87646484 7.79492188 16.34765625 C7.6432999 9.89690166 7.6432999 9.89690166 4.57421875 4.4140625 C3.72472656 3.61742188 2.87523437 2.82078125 2 2 C1.34 1.34 0.68 0.68 0 0 Z " fill="#E8EBEF" transform="translate(151,81)"/>
<path d="M0 0 C9.93506872 8.16580991 9.93506872 8.16580991 11 16 C11.59045201 24.34376443 11.7270608 30.9094088 7 38 C6.01 38.495 6.01 38.495 5 39 C7 34 7 34 8.05078125 31.65625 C10.36146144 25.19014907 9.62601383 17.95222058 6.921875 11.71484375 C4.89262983 7.9401038 2.08612672 4.93182039 -1 2 C-0.67 1.34 -0.34 0.68 0 0 Z " fill="#7BB0D9" transform="translate(138,20)"/>
<path d="M0 0 C0.69843018 0.00008057 1.39686035 0.00016113 2.11645508 0.00024414 C4.23669772 -0.00193345 6.35641264 -0.02005988 8.4765625 -0.0390625 C9.8261701 -0.04199819 11.17578016 -0.04398181 12.52539062 -0.04492188 C13.75491455 -0.04903076 14.98443848 -0.05313965 16.2512207 -0.05737305 C19.25854858 0.17148288 20.92325009 0.60110813 23.44335938 2.18554688 C15.54464807 2.99271445 7.69174423 3.31601572 -0.24414062 3.37304688 C-1.57203613 3.39238281 -1.57203613 3.39238281 -2.92675781 3.41210938 C-4.17247559 3.41404297 -4.17247559 3.41404297 -5.44335938 3.41601562 C-6.18803467 3.42012451 -6.93270996 3.4242334 -7.69995117 3.4284668 C-9.55664062 3.18554688 -9.55664062 3.18554688 -11.55664062 1.18554688 C-9.13900695 -1.2320868 -3.37595018 0.01232401 0 0 Z " fill="#622EBB" transform="translate(37.556640625,81.814453125)"/>
<path d="M0 0 C4.54165313 -0.0291189 9.0832821 -0.0468389 13.625 -0.0625 C14.91019531 -0.07087891 16.19539063 -0.07925781 17.51953125 -0.08789062 C18.76347656 -0.09111328 20.00742188 -0.09433594 21.2890625 -0.09765625 C22.43068848 -0.10289307 23.57231445 -0.10812988 24.74853516 -0.11352539 C27.91881886 -0.00283445 30.88768854 0.40433244 34 1 C34.495 3.475 34.495 3.475 35 6 C33.31390625 5.27683594 33.31390625 5.27683594 31.59375 4.5390625 C26.87662349 2.77221626 22.49879939 2.48733257 17.5 2.375 C15.88532259 2.32316445 14.27073324 2.26850416 12.65625 2.2109375 C11.8828125 2.18354492 11.109375 2.15615234 10.3125 2.12792969 C6.84426846 1.93606384 3.43921094 1.48117401 0 1 C0 0.67 0 0.34 0 0 Z " fill="#6F8BD5" transform="translate(120,82)"/>
<path d="M0 0 C1.43836751 0.11458693 2.87570966 0.24209116 4.3125 0.375 C5.51326172 0.47941406 5.51326172 0.47941406 6.73828125 0.5859375 C9 1 9 1 12 3 C14.02249579 3.45276748 14.02249579 3.45276748 16.23046875 3.6328125 C17.43413086 3.75849609 17.43413086 3.75849609 18.66210938 3.88671875 C19.49548828 3.96535156 20.32886719 4.04398437 21.1875 4.125 C22.03248047 4.21136719 22.87746094 4.29773438 23.74804688 4.38671875 C25.83128923 4.5985739 27.91556042 4.80026777 30 5 C30 5.33 30 5.66 30 6 C8.18621465 7.03194763 8.18621465 7.03194763 0 1 C0 0.67 0 0.34 0 0 Z " fill="#7768C3" transform="translate(26,67)"/>
<path d="M0 0 C-2.49669115 5.66650981 -7.03394908 8.82793119 -12.25 11.9375 C-15 13 -15 13 -18 12 C-17.34 12 -16.68 12 -16 12 C-15.67 11.01 -15.34 10.02 -15 9 C-11.55555556 6 -11.55555556 6 -9 6 C-9 5.34 -9 4.68 -9 4 C-2.25 0 -2.25 0 0 0 Z " fill="#7C9CCF" transform="translate(74,59)"/>
<path d="M0 0 C0 3.69349436 -0.88153908 5.00493457 -3 8 C-7.56243138 12.31581346 -11.72660758 14 -18 14 C-18 13.34 -18 12.68 -18 12 C-17.27167969 11.73445313 -16.54335937 11.46890625 -15.79296875 11.1953125 C-13.01236557 10.00529212 -10.78159034 8.61048964 -8.3125 6.875 C-4.22009569 4 -4.22009569 4 -2 4 C-1.34 2.68 -0.68 1.36 0 0 Z " fill="#8698C9" transform="translate(142,59)"/>
<path d="M0 0 C0.33 0 0.66 0 1 0 C1.03738281 0.71285156 1.07476562 1.42570313 1.11328125 2.16015625 C1.52340177 8.13504928 2.37262272 12.63101165 5 18 C5 18.66 5 19.32 5 20 C9.455 20.99 9.455 20.99 14 22 C11 24 11 24 8.5625 23.9375 C4.46910969 22.43991818 2.77118934 19.56690413 0.89453125 15.75390625 C-0.18329582 12.43570501 -0.19533373 9.66901947 -0.125 6.1875 C-0.10695313 5.02605469 -0.08890625 3.86460937 -0.0703125 2.66796875 C-0.04710937 1.78753906 -0.02390625 0.90710938 0 0 Z " fill="#723AB5" transform="translate(14,157)"/>
<path d="M0 0 C7.07894929 0.54453456 13.67658258 4.4046733 19 9 C19.25 11.6875 19.25 11.6875 19 14 C18.01 13.34 17.02 12.68 16 12 C16 11.34 16 10.68 16 10 C15.01 9.67 14.02 9.34 13 9 C13 8.34 13 7.68 13 7 C10.03 6.01 7.06 5.02 4 4 C4 3.34 4 2.68 4 2 C2.68 2 1.36 2 0 2 C0 1.34 0 0.68 0 0 Z " fill="#7DA1D1" transform="translate(52,14)"/>
<path d="M0 0 C5.62827225 0.91623037 5.62827225 0.91623037 8.21875 1.5 C11.73631593 2.1323714 15.25055763 2.35457801 18.8125 2.5625 C19.85180664 2.62727539 19.85180664 2.62727539 20.91210938 2.69335938 C22.60788686 2.79861453 24.30392052 2.89972863 26 3 C26 3.66 26 4.32 26 5 C16.52395508 5.42324766 8.60159081 5.63162582 0 1 C0 0.67 0 0.34 0 0 Z " fill="#D3D2E1" transform="translate(100,70)"/>
<path d="M0 0 C8.25 0.99 16.5 1.98 25 3 C25 3.66 25 4.32 25 5 C16.67551745 5.35733073 8.80621845 5.24762523 1 2 C0.67 1.34 0.34 0.68 0 0 Z " fill="#6E69C7" transform="translate(99,68)"/>
<path d="M0 0 C0 0.33 0 0.66 0 1 C-0.99 1.061875 -1.98 1.12375 -3 1.1875 C-7.07072718 1.74184699 -9.86044534 3.54398639 -13.203125 5.84375 C-15 7 -15 7 -18 8 C-17.25 3.25 -17.25 3.25 -15 1 C-10.02521609 -0.21336193 -5.08411245 -0.10168225 0 0 Z " fill="#8F68C1" transform="translate(34,81)"/>
<path d="M0 0 C1 2 1 2 0.0625 5.3125 C-1.78209912 12.10511163 -2.0557324 20.22430599 0 27 C-0.66 27 -1.32 27 -2 27 C-4.71673238 17.49143666 -4.48885458 10.27348394 -1 1 C-0.67 0.67 -0.34 0.34 0 0 Z " fill="#CCC1DB" transform="translate(16,28)"/>
<path d="M0 0 C-1.051875 0.4125 -2.10375 0.825 -3.1875 1.25 C-5.82281745 2.36044627 -7.41251661 3.33576934 -9.6875 5.1875 C-12 7 -12 7 -16 7 C-16 7.66 -16 8.32 -16 9 C-16.66 8.67 -17.32 8.34 -18 8 C-14.49695528 3.37097662 -12.23545942 0.47062304 -6.4375 -0.75 C-3 -1 -3 -1 0 0 Z " fill="#7B59BD" transform="translate(37,18)"/>
<path d="M0 0 C0 0.66 0 1.32 0 2 C-1.22976562 2.06058594 -2.45953125 2.12117187 -3.7265625 2.18359375 C-5.35938427 2.26805005 -6.99219627 2.35269547 -8.625 2.4375 C-9.43324219 2.47681641 -10.24148437 2.51613281 -11.07421875 2.55664062 C-15.45150865 2.78796082 -19.68547281 3.16920917 -24 4 C-17.02918462 -1.79309771 -8.54578104 -1.34550595 0 0 Z " fill="#CBCADB" transform="translate(126,12)"/>
<path d="M0 0 C0.33 0 0.66 0 1 0 C1.08164159 2.6881249 1.14079668 5.373723 1.1875 8.0625 C1.22520508 9.19075195 1.22520508 9.19075195 1.26367188 10.34179688 C1.34220557 16.38889147 0.33971616 21.09875196 -3.5625 25.9375 C-5 27 -5 27 -7 27 C-7 26.01 -7 25.02 -7 24 C-6.34 23.67 -5.68 23.34 -5 23 C-4.27840576 21.35636866 -3.60648579 19.68949614 -3 18 C-2.34 18 -1.68 18 -1 18 C-0.505 9.09 -0.505 9.09 0 0 Z " fill="#8FAAD5" transform="translate(158,153)"/>
<path d="M0 0 C0.33 0 0.66 0 1 0 C1.05404449 2.75026417 1.09369306 5.49946203 1.125 8.25 C1.15013672 9.41595703 1.15013672 9.41595703 1.17578125 10.60546875 C1.239277 18.03447101 1.239277 18.03447101 -1 21 C-3.625 22.25 -3.625 22.25 -6 23 C-5.505 21.515 -5.505 21.515 -5 20 C-4.34 20 -3.68 20 -3 20 C-2.7834375 18.88625 -2.7834375 18.88625 -2.5625 17.75 C-2 15 -2 15 -1.46484375 13.15234375 C-0.92280004 10.64254472 -0.93939195 8.37697825 -1 5.8125 C-1.037569 4.20877332 -1.04673183 2.60348584 -1 1 C-0.67 0.67 -0.34 0.34 0 0 Z " fill="#76B0DC" transform="translate(76,38)"/>
<path d="M0 0 C4.47959418 1.14185734 8.14522751 2.43015167 12 5 C11.67 5.99 11.34 6.98 11 8 C6.38 6.35 1.76 4.7 -3 3 C-2.01 2.01 -1.02 1.02 0 0 Z " fill="#7C91CE" transform="translate(126,14)"/>
<path d="M0 0 C6.48785244 1.69919945 10.43858472 5.18517276 15 10 C9.63662419 10 7.38799792 8.81867886 3.5625 5 C0 1.21442125 0 1.21442125 0 0 Z " fill="#6844BD" transform="translate(90,59)"/>
<path d="M0 0 C0.33 0 0.66 0 1 0 C0.71860476 3.65813817 0.43656214 6.31896306 -1.5625 9.4375 C-5.03127176 11.66107164 -7.98530234 11.57587876 -12 11 C-14.5 10 -14.5 10 -16 9 C-13.47946405 7.73973202 -12.1457902 8.08125555 -9.375 8.4375 C-8.55773437 8.53933594 -7.74046875 8.64117187 -6.8984375 8.74609375 C-6.27195313 8.82988281 -5.64546875 8.91367188 -5 9 C-2.0459281 4.73422431 -2.0459281 4.73422431 0 0 Z " fill="#EAEDEF" transform="translate(197,165)"/>
<path d="M0 0 C0.33 0 0.66 0 1 0 C1.34717213 3.73210035 1.2922789 5.54070458 -0.75 8.75 C-2.85060476 10.85060476 -4.18309585 12.11971745 -7 13 C-8.34313401 12.70865843 -9.67913658 12.37974823 -11 12 C-10.45730469 11.72027344 -9.91460937 11.44054687 -9.35546875 11.15234375 C-3.95931183 8.12855131 -1.85566868 5.91494391 0 0 Z " fill="#E7EAEF" transform="translate(158,170)"/>
<path d="M0 0 C0.33 0 0.66 0 1 0 C0.855625 1.216875 0.71125 2.43375 0.5625 3.6875 C-0.11863226 9.7787685 -0.55598069 15.88764914 -1 22 C-1.33 22 -1.66 22 -2 22 C-2.05416741 19.27056463 -2.09375225 16.54221436 -2.125 13.8125 C-2.14175781 13.04357422 -2.15851562 12.27464844 -2.17578125 11.48242188 C-2.21266851 7.1850566 -1.9958504 3.92098169 0 0 Z " fill="#C0B0D1" transform="translate(15,87)"/>
<path d="M0 0 C4.73733292 3.78240597 4.73733292 3.78240597 5.41259766 6.91259766 C5.49106197 9.06454463 5.43736563 11.16289016 5.3125 13.3125 C5.28994141 14.05306641 5.26738281 14.79363281 5.24414062 15.55664062 C5.1855815 17.37197357 5.09590886 19.18625681 5 21 C4.67 21 4.34 21 4 21 C3.96261719 20.04738281 3.92523438 19.09476563 3.88671875 18.11328125 C3.82097656 16.85902344 3.75523437 15.60476562 3.6875 14.3125 C3.62949219 13.07113281 3.57148438 11.82976562 3.51171875 10.55078125 C2.98710818 6.91054453 2.02197998 5.00857611 0 2 C0 1.34 0 0.68 0 0 Z " fill="#8DA3C4" transform="translate(154,84)"/>
<path d="M0 0 C0 3.10551666 -0.5393715 4.35261084 -2 7 C-3.32 7 -4.64 7 -6 7 C-6 7.66 -6 8.32 -6 9 C-7.98 9.33 -9.96 9.66 -12 10 C-9.49000892 7.84857907 -7.42919652 6.15970103 -4.3125 5 C-1.8385776 4.19203343 -1.8385776 4.19203343 -0.6875 1.875 C-0.460625 1.25625 -0.23375 0.6375 0 0 Z " fill="#729BDC" transform="translate(142,59)"/>
<path d="M0 0 C-3.5231594 4.07944772 -7.83024354 5.11375604 -13 6 C-8.66195191 1.42746282 -6.31941462 -0.17079499 0 0 Z " fill="#6F50BF" transform="translate(108,17)"/>
<path d="M0 0 C0.33 0 0.66 0 1 0 C1 1.98 1 3.96 1 6 C3.71224618 4.38731308 6.37352812 2.75098126 9 1 C8.75 3.375 8.75 3.375 8 6 C6.1875 7.375 6.1875 7.375 4 8 C1.75 7.625 1.75 7.625 0 7 C0 4.69 0 2.38 0 0 Z " fill="#91B2DA" transform="translate(158,105)"/>
<path d="M0 0 C0.66 0 1.32 0 2 0 C1.8125 1.875 1.8125 1.875 1 4 C-1.3125 5.0625 -1.3125 5.0625 -4 6 C-5.36365283 6.95824253 -6.70794169 7.94721175 -8 9 C-8.66 8.67 -9.32 8.34 -10 8 C-8.90398831 6.99106869 -7.79786082 5.99311775 -6.6875 5 C-6.07261719 4.443125 -5.45773438 3.88625 -4.82421875 3.3125 C-3 2 -3 2 0 2 C0 1.34 0 0.68 0 0 Z " fill="#84AED0" transform="translate(182,92)"/>
<path d="M0 0 C0.99 0.33 1.98 0.66 3 1 C0.69 3.64 -1.62 6.28 -4 9 C-4.33 8.01 -4.66 7.02 -5 6 C-4.01 5.67 -3.02 5.34 -2 5 C-2 3.68 -2 2.36 -2 1 C-1.34 0.67 -0.68 0.34 0 0 Z " fill="#6831CB" transform="translate(97,22)"/>
<path d="M0 0 C4.35522853 0.50642192 7.44239635 1.38411497 11 4 C11 4.66 11 5.32 11 6 C8.69 5.34 6.38 4.68 4 4 C4 3.34 4 2.68 4 2 C2.68 2 1.36 2 0 2 C0 1.34 0 0.68 0 0 Z " fill="#7D8ECA" transform="translate(52,14)"/>
<path d="M0 0 C0.68359375 1.734375 0.68359375 1.734375 1 4 C-0.21484375 6.140625 -0.21484375 6.140625 -1.9375 8.25 C-2.50339844 8.95640625 -3.06929687 9.6628125 -3.65234375 10.390625 C-4.31943359 11.18726562 -4.31943359 11.18726562 -5 12 C-5.33 11.01 -5.66 10.02 -6 9 C-4.78515625 6.73828125 -4.78515625 6.73828125 -3.0625 4.3125 C-2.49660156 3.50425781 -1.93070313 2.69601563 -1.34765625 1.86328125 C-0.90292969 1.24839844 -0.45820313 0.63351563 0 0 Z " fill="#82A6C7" transform="translate(147,53)"/>
<path d="M0 0 C0.33 1.32 0.66 2.64 1 4 C0.38125 4.04125 -0.2375 4.0825 -0.875 4.125 C-1.57625 4.41375 -2.2775 4.7025 -3 5 C-4.3045656 7.99615946 -4.3045656 7.99615946 -5 11 C-5.66 11 -6.32 11 -7 11 C-5.5140084 6.40693504 -3.14985318 3.56430755 0 0 Z " fill="#7046AE" transform="translate(94,23)"/>
<path d="M0 0 C1.32 0 2.64 0 4 0 C4.33 0.66 4.66 1.32 5 2 C5.99 2.33 6.98 2.66 8 3 C8 3.99 8 4.98 8 6 C4.74456771 5.65120368 3.98126893 4.97866739 1.75 2.4375 C1.1725 1.633125 0.595 0.82875 0 0 Z " fill="#7048BC" transform="translate(20,61)"/>
<path d="M0 0 C0.99 0 1.98 0 3 0 C6 4.22222222 6 4.22222222 6 7 C3.00675737 5.9024777 2.15389099 5.32317108 0.75 2.375 C0.5025 1.59125 0.255 0.8075 0 0 Z " fill="#6B36B6" transform="translate(16,54)"/>
<path d="M0 0 C-3.85756507 2.15305957 -6.55129785 3.39253254 -11 3 C-10 1 -10 1 -7.1875 -0.1875 C-4.14038924 -0.96421451 -2.86250637 -1.10096399 0 0 Z " fill="#7E6EB7" transform="translate(40,15)"/>
<path d="M0 0 C-0.639375 0.309375 -1.27875 0.61875 -1.9375 0.9375 C-3.93610821 1.8345163 -3.93610821 1.8345163 -5 3 C-6.99958364 3.04080783 -9.00045254 3.04254356 -11 3 C-8.89427904 -1.21144191 -4.11694326 -0.07767817 0 0 Z " fill="#C2D2DD" transform="translate(193,89)"/>
<path d="M0 0 C-6.625 2.875 -6.625 2.875 -10 4 C-9.3125 2.0625 -9.3125 2.0625 -8 0 C-4.70572419 -1.09809194 -3.33588828 -1.11196276 0 0 Z " fill="#6946C7" transform="translate(37,18)"/>
<path d="M0 0 C1.64767247 0.28109113 3.29313145 0.57518526 4.9375 0.875 C5.85402344 1.03742188 6.77054687 1.19984375 7.71484375 1.3671875 C8.46894531 1.57601562 9.22304687 1.78484375 10 2 C10.33 2.66 10.66 3.32 11 4 C7.0507432 3.44894091 3.65079826 2.61064629 0 1 C0 0.67 0 0.34 0 0 Z " fill="#7A68BA" transform="translate(99,68)"/>
<path d="M0 0 C1.98 0.66 3.96 1.32 6 2 C6.33 3.65 6.66 5.3 7 7 C5.83040013 6.02433888 4.66438823 5.044375 3.5 4.0625 C2.8503125 3.51722656 2.200625 2.97195312 1.53125 2.41015625 C1.0259375 1.94480469 0.520625 1.47945312 0 1 C0 0.67 0 0.34 0 0 Z " fill="#7149B4" transform="translate(90,59)"/>
<path d="M0 0 C2.78388975 1.70625501 3.85384206 2.47626739 4.75 5.6875 C4.8325 6.450625 4.915 7.21375 5 8 C3.02 6.35 1.04 4.7 -1 3 C-0.67 2.01 -0.34 1.02 0 0 Z " fill="#7DA2D4" transform="translate(138,20)"/>
</svg>
